<svg xmlns="http://www.w3.org/2000/svg" viewBox="0 0 800 200">
  <!-- Definitions for patterns and filters -->
  <defs>
    <!-- Glow effect for power pellets -->
    <filter id="glow" x="-50%" y="-50%" width="200%" height="200%">
      <feGaussianBlur stdDeviation="2" result="coloredBlur"/>
      <feMerge>
        <feMergeNode in="coloredBlur"/>
        <feMergeNode in="SourceGraphic"/>
      </feMerge>
    </filter>
    
    <!-- Ghost gradient -->
    <linearGradient id="ghostGradient" x1="0%" y1="0%" x2="0%" y2="100%">
      <stop offset="0%" style="stop-color:#FF0000"/>
      <stop offset="100%" style="stop-color:#FF6666"/>
    </linearGradient>
  </defs>

  <!-- Background Grid (Contribution-like pattern) -->
  <g id="contribution-grid">
    <!-- Week rows -->
    <g id="cells" fill="#39d353">
      <!-- Dynamic contribution cells with varying intensities -->
      <rect x="50" y="20" width="15" height="15" rx="2" fill="#0e4429"/>
      <rect x="70" y="20" width="15" height="15" rx="2" fill="#006d32"/>
      <rect x="90" y="20" width="15" height="15" rx="2" fill="#26a641"/>
      <rect x="110" y="20" width="15" height="15" rx="2" fill="#39d353"/>
      
      <rect x="50" y="40" width="15" height="15" rx="2" fill="#26a641"/>
      <rect x="70" y="40" width="15" height="15" rx="2" fill="#006d32"/>
      <rect x="90" y="40" width="15" height="15" rx="2" fill="#0e4429"/>
      <rect x="110" y="40" width="15" height="15" rx="2" fill="#26a641"/>
      
      <!-- Pattern continues... -->
      <rect x="650" y="140" width="15" height="15" rx="2" fill="#39d353"/>
      <rect x="670" y="140" width="15" height="15" rx="2" fill="#26a641"/>
      <rect x="690" y="140" width="15" height="15" rx="2" fill="#006d32"/>
      <rect x="710" y="140" width="15" height="15" rx="2" fill="#0e4429"/>
    </g>
  </g>

  <!-- Pac-Man -->
  <g transform="translate(0, 80)">
    <path id="pacman" fill="yellow" d="M30 0A30 30 0 1 1 30 60A30 30 0 1 1 30 0">
      <!-- Chomping animation -->
      <animate attributeName="d" 
               values="M30 0A30 30 0 1 1 30 60A30 30 0 1 1 30 0L30 30Z;
                       M30 0A30 30 0 1 1 30 60A30 30 0 1 1 30 0L30 30L30 30Z;
                       M30 0A30 30 0 1 1 30 60A30 30 0 1 1 30 0L30 30Z"
               dur="0.5s" repeatCount="indefinite"/>
      <!-- Movement animation -->
      <animateTransform attributeName="transform"
                        type="translate"
                        from="0 0" to="750 0"
                        dur="15s" repeatCount="indefinite"/>
    </path>
  </g>

  <!-- Power Pellets -->
  <g>
    <circle cx="200" cy="110" r="8" fill="white" filter="url(#glow)">
      <animate attributeName="opacity" values="1;0.3;1" dur="1s" repeatCount="indefinite"/>
    </circle>
    <circle cx="400" cy="110" r="8" fill="white" filter="url(#glow)">
      <animate attributeName="opacity" values="1;0.3;1" dur="1s" repeatCount="indefinite"/>
    </circle>
    <circle cx="600" cy="110" r="8" fill="white" filter="url(#glow)">
      <animate attributeName="opacity" values="1;0.3;1" dur="1s" repeatCount="indefinite"/>
    </circle>
  </g>

  <!-- Ghost -->
  <g transform="translate(700, 110)">
    <path d="M-15 0C-15 -15 15 -15 15 0C15 15 -15 15 -15 0Z M-15 0L-15 15L-10 10L-5 15L0 10L5 15L10 10L15 15L15 0Z" 
          fill="url(#ghostGradient)">
      <!-- Ghost movement -->
      <animateTransform attributeName="transform"
                        type="translate"
                        values="0 0; -10 -5; 0 0"
                        dur="2s"
                        repeatCount="indefinite"/>
    </path>
    <!-- Ghost eyes -->
    <circle cx="-6" cy="-2" r="3" fill="white"/>
    <circle cx="6" cy="-2" r="3" fill="white"/>
    <circle cx="-4" cy="-2" r="1" fill="blue"/>
    <circle cx="8" cy="-2" r="1" fill="blue"/>
  </g>

  <!-- Small Dots -->
  <g>
    <circle cx="150" cy="110" r="3" fill="white">
      <animate attributeName="opacity" values="1;0" dur="15s" repeatCount="indefinite"/>
    </circle>
    <circle cx="300" cy="110" r="3" fill="white">
      <animate attributeName="opacity" values="1;0" dur="15s" repeatCount="indefinite"/>
    </circle>
    <circle cx="450" cy="110" r="3" fill="white">
      <animate attributeName="opacity" values="1;0" dur="15s" repeatCount="indefinite"/>
    </circle>
  </g>

  <!-- Score Text -->
  <text x="40" y="180" font-family="monospace" font-size="20" fill="#39d353">
    SCORE: 
    <animate attributeName="textContent" values="0;100;200;300;400" dur="15s" repeatCount="indefinite"/>
  </text>
</svg>
